<svg width="16" height="16" viewBox="0 0 16 16" fill="none" xmlns="http://www.w3.org/2000/svg">
<path fill-rule="evenodd" clip-rule="evenodd" d="M8 14.75C11.7279 14.75 14.75 11.7279 14.75 8C14.75 4.27208 11.7279 1.25 8 1.25C4.27208 1.25 1.25 4.27208 1.25 8C1.25 11.7279 4.27208 14.75 8 14.75ZM8 16C12.4183 16 16 12.4183 16 8C16 3.58172 12.4183 0 8 0C3.58172 0 0 3.58172 0 8C0 12.4183 3.58172 16 8 16Z" fill="#E21931"/>
<path d="M8.70312 11.6719C8.70312 12.0602 8.38833 12.375 8 12.375C7.61167 12.375 7.29688 12.0602 7.29688 11.6719C7.29688 11.2835 7.61167 10.9688 8 10.9688C8.38833 10.9688 8.70312 11.2835 8.70312 11.6719Z" fill="#E21931"/>
<path d="M7.375 4.09375C7.375 3.83487 7.58487 3.625 7.84375 3.625H8.15625C8.41513 3.625 8.625 3.83487 8.625 4.09375V9.71875C8.625 9.97763 8.41513 10.1875 8.15625 10.1875H7.84375C7.58487 10.1875 7.375 9.97763 7.375 9.71875V4.09375Z" fill="#E21931"/>
</svg>
