<svg width="110" height="80" viewBox="0 0 110 80" fill="none" xmlns="http://www.w3.org/2000/svg">
<path d="M9.77543 41.9398C9.16362 41.5627 8.88835 40.8072 8.8461 40.0926C8.80369 39.3779 8.94947 38.666 8.97151 37.9503C8.99354 37.2346 8.86843 36.4672 8.37932 35.9421C8.08338 35.6245 7.66127 35.4612 7.23343 35.3818C6.7994 35.3012 6.31602 35.4678 6.2955 35.8266C6.24509 36.1971 7.90983 35.9514 7.58762 37.3774C7.45301 37.9733 6.82415 38.3857 6.21023 38.3807C5.87581 38.378 5.5367 38.2617 5.29645 38.0302C5.05634 37.7985 4.92746 37.4469 4.99718 37.1216C5.10177 36.6337 5.58032 36.3366 5.98567 36.0429C6.06852 35.9829 6.15756 35.9071 6.16103 35.8051C6.1645 35.7027 6.07864 35.6193 5.98975 35.5673C5.47 35.2633 4.80401 35.5933 4.36485 36.0045C3.91181 36.4286 3.54781 36.9463 3.30287 37.5152C2.30412 36.7496 0.696286 35.1494 0.0452433 35.6229C-0.435267 35.788 3.03108 40.0722 4.78409 41.1575C6.53711 42.2428 8.4584 43.0272 10.3779 43.7841L9.77543 41.9398Z" fill="black"/>
<path d="M34.4469 40.7325C34.4598 40.7205 34.4698 40.7115 34.4763 40.7055C34.9227 40.2905 34.9465 39.5942 34.5296 39.15C34.1141 38.7077 33.4181 38.6824 32.9714 39.0921C32.9697 39.0936 32.9682 39.0951 32.9665 39.0966C32.906 39.1572 26.2862 45.2134 19.2729 45.297C13.1328 45.3702 8.85787 40.8349 8.81546 40.7893C8.40136 40.3423 7.70142 40.3141 7.2523 40.7261C6.80318 41.138 6.77481 41.8341 7.18891 42.2811C7.38963 42.4976 12.1849 47.5827 19.2996 47.4979C27.0042 47.4058 33.8713 41.2605 34.4469 40.7325Z" fill="black"/>
<path d="M77.5281 41.8006C77.5136 41.7906 77.5026 41.7829 77.4954 41.7778C76.9966 41.4267 76.8784 40.74 77.2314 40.2438C77.5829 39.7497 78.2693 39.6311 78.7674 39.977C78.7692 39.9782 78.7711 39.9796 78.7729 39.9808C78.8411 40.0327 86.2224 45.144 93.1829 44.2845C99.2766 43.532 102.897 38.464 102.933 38.4128C103.282 37.9146 103.972 37.7924 104.473 38.1404C104.974 38.4881 105.096 39.1741 104.747 39.6726C104.577 39.914 100.516 45.5969 93.4553 46.4688C85.8086 47.4127 78.1701 42.2463 77.5281 41.8006Z" fill="black"/>
<path d="M101.125 40.6938C101.682 40.2405 101.856 39.4558 101.804 38.7416C101.752 38.0276 101.514 37.3407 101.399 36.634C101.283 35.9274 101.306 35.1501 101.722 34.566C101.974 34.2127 102.371 33.9961 102.784 33.8618C103.204 33.7254 103.705 33.8278 103.773 34.1809C103.871 34.5417 102.189 34.5142 102.695 35.8862C102.907 36.4596 103.585 36.7868 104.193 36.702C104.524 36.6558 104.845 36.4966 105.053 36.2359C105.26 35.9751 105.342 35.6097 105.23 35.2961C105.062 34.826 104.549 34.5935 104.108 34.3551C104.018 34.3063 103.92 34.2426 103.903 34.142C103.886 34.041 103.961 33.947 104.042 33.884C104.517 33.515 105.221 33.7558 105.71 34.1063C106.215 34.468 106.644 34.934 106.962 35.466C107.851 34.5773 109.235 32.782 109.943 33.1668C110.441 33.2681 107.567 37.9658 105.971 39.2695C104.375 40.5732 102.573 41.6004 100.77 42.6002L101.125 40.6938Z" fill="black"/>
<path d="M55.9627 17.1299C48.0988 17.4526 39.3144 12.1246 29.2607 17.1299C17.741 22.865 18.7882 50.6037 32.1406 64.2208C45.4931 77.8382 70.889 74.4454 79.7906 65.5799C89.1707 56.2378 95.4994 29.8047 85.8122 20.1314C76.1254 10.458 74.5513 16.3671 55.9627 17.1299Z" fill="#F25549"/>
<path d="M85.8124 20.1314C84.9379 19.2581 84.1296 18.5123 83.3688 17.8777C88.1888 29.6315 82.3621 50.4699 74.2554 58.5438C65.5128 67.2509 40.8605 70.6785 27.3329 57.8978C28.7028 60.2096 30.3052 62.3489 32.1407 64.2209C45.4933 77.8382 70.8891 74.4455 79.7908 65.58C89.1708 56.2378 95.4996 29.8047 85.8124 20.1314Z" fill="#DB4C45"/>
<g opacity="0.38">
<path d="M28.4187 21.7498C26.3726 24.3927 25.4516 27.8701 25.9229 31.1729C26.0919 32.3569 26.4473 33.5468 27.1883 34.4886C27.9293 35.4305 29.1078 36.088 30.305 35.9801C31.8244 35.843 33.0112 34.5326 33.545 33.1109C34.0789 31.6892 34.1121 30.1395 34.2973 28.6332C34.4825 27.1268 34.869 25.5563 35.9341 24.4697C37.0168 23.3652 38.6089 22.948 39.9261 22.1338C41.2434 21.3197 42.3543 19.6591 41.6325 18.2939C40.6066 16.3532 37.0975 16.7702 35.3384 17.2397C32.6132 17.9667 30.1481 19.5162 28.4187 21.7498Z" fill="white"/>
</g>
<g opacity="0.38">
<path d="M45.9301 21.6077C46.7285 22.0549 47.6696 22.1732 48.5855 22.2008C49.4954 22.2283 50.445 22.1645 51.2382 21.7204C52.0314 21.2763 52.619 20.3613 52.426 19.4765C52.1803 18.3507 50.8914 17.8081 49.7504 17.6098C48.3934 17.3739 46.3565 17.0327 45.2446 18.0427C44.0127 19.1618 44.5889 20.8564 45.9301 21.6077Z" fill="white"/>
</g>
<path d="M30.7914 79.8747C27.2659 79.8747 24.8809 79.2337 23.5329 77.9314C21.9198 76.3733 21.5072 74.4044 22.3398 72.2379C23.668 68.7809 27.6808 65.7564 31.6553 63.7764L33.3817 65.4073C31.8951 66.0628 30.9479 66.5854 29.9477 67.3008C27.3737 69.1418 25.5123 71.1996 24.841 72.9469C24.3048 74.3423 24.5209 75.4811 25.5013 76.4282C26.203 77.106 28.0472 77.8495 32.847 77.5419C36.3592 77.3168 40.9232 76.5516 46.4124 75.2679C56.9743 72.7975 67.8641 69.1532 72.0558 67.701C72.7304 67.4673 73.4977 67.7475 73.7699 68.3269C74.0419 68.9062 73.7158 69.5654 73.0412 69.799C68.8062 71.2662 57.8011 74.9489 47.1043 77.4506C41.4533 78.7723 36.7225 79.562 33.0431 79.798C32.2465 79.8492 31.496 79.8747 30.7914 79.8747Z" fill="black"/>
<path d="M83.7214 80.0001C83.0164 80.0001 82.2665 79.9746 81.4699 79.9234C77.7904 79.6876 73.0596 78.8979 67.4086 77.5762C56.7112 75.074 45.7066 71.3915 41.4718 69.9244C40.7972 69.6907 40.4711 69.0316 40.743 68.4523C41.0151 67.8728 41.7828 67.5927 42.4571 67.8264C46.6486 69.2786 57.5382 72.9229 68.1005 75.3933C73.5896 76.677 78.1537 77.4422 81.6658 77.6674C86.4656 77.9753 88.3097 77.2316 89.0115 76.5536C89.992 75.6065 90.2079 74.4678 89.6717 73.0723C89.0005 71.3251 87.1391 69.2672 84.565 67.4262C83.3316 66.544 82.1955 65.8381 80.3469 65.0019L81.8038 63.2568C86.1473 65.2017 90.7473 68.653 92.173 72.3634C93.0054 74.5301 92.5928 76.4988 90.9797 78.057C89.6319 79.3591 87.2464 80.0001 83.7214 80.0001Z" fill="black"/>
<path d="M46.497 69.2468C46.1228 69.0366 45.79 68.7534 45.5233 68.4181C44.9286 67.6703 44.5932 66.6149 43.6998 66.2699C43.2599 66.1001 42.7569 66.1483 42.3181 66.3208C41.8794 66.4933 41.4962 66.7811 41.1412 67.0902C39.8281 68.2338 38.8315 69.7025 37.5102 70.8368C36.6829 71.547 35.7415 72.1143 34.8961 72.8031C34.4745 73.1468 34.0385 73.6688 34.243 74.1715C34.4325 74.6377 35.0457 74.7456 35.5502 74.7131C36.6458 74.6423 37.6894 74.2439 38.7151 73.8543C40.4935 73.1789 42.2769 72.5168 44.0652 71.8683C45.6113 71.3076 47.233 70.7482 48.8656 70.9543L46.497 69.2468Z" fill="black"/>
<path d="M69.9086 68.5214C70.2515 68.2637 70.5435 67.9391 70.7633 67.5714C71.253 66.7519 71.4445 65.6613 72.284 65.2014C72.6974 64.975 73.2025 64.9563 73.6604 65.0694C74.1184 65.1823 74.5366 65.4171 74.9295 65.6766C76.3835 66.6369 77.5674 67.9608 79.0282 68.9106C79.9429 69.5052 80.9518 69.9433 81.8815 70.5144C82.3455 70.7992 82.8471 71.259 82.7116 71.7843C82.5859 72.2715 81.9925 72.4593 81.4883 72.4936C80.3929 72.5684 79.3053 72.3112 78.2367 72.0605C76.3841 71.6259 74.528 71.2053 72.6688 70.7984C71.0616 70.4468 69.3795 70.1065 67.789 70.5264L69.9086 68.5214Z" fill="black"/>
<path d="M37.4846 29.0898C37.727 29.3333 38.1298 29.3279 38.4557 29.2171C38.9171 29.0603 39.2987 28.7382 39.7005 28.4634C40.3965 27.9875 41.1811 27.6401 42.0024 27.4443C42.3812 27.3541 42.8534 27.2099 42.8998 26.8253C42.9303 26.5726 42.7323 26.3356 42.4948 26.2412C42.2573 26.1467 41.9909 26.1645 41.7374 26.1982C41.1177 26.2809 36.1218 27.7199 37.4846 29.0898Z" fill="black"/>
<path d="M71.7632 29.265C71.5044 29.4913 71.103 29.458 70.7854 29.3248C70.3362 29.1364 69.9779 28.7887 69.5964 28.4868C68.9354 27.9639 68.177 27.563 67.3713 27.311C66.9999 27.1948 66.5387 27.0184 66.5193 26.6314C66.5064 26.3772 66.7206 26.1544 66.964 26.0766C67.2076 25.9987 67.472 26.0349 67.7225 26.0861C68.3354 26.2116 73.2185 27.9927 71.7632 29.265Z" fill="black"/>
<path d="M54.4733 56.2556C54.4732 56.2556 54.4735 56.2556 54.4733 56.2556C50.1938 56.2556 48.01 54.4091 46.9315 52.8603C45.6632 51.0385 45.584 49.2321 45.584 49.215C45.584 48.9681 45.7852 48.7678 46.0336 48.7678C46.2805 48.7678 46.4807 48.9658 46.483 49.2108C46.4878 49.3152 46.9119 55.3613 54.4732 55.3613C57.5172 55.3614 59.8054 54.6198 61.2742 53.1571C62.7494 51.6881 62.9696 49.8998 62.9696 48.9643C62.9696 48.7174 63.1709 48.5171 63.4192 48.5171C63.6674 48.5171 63.8686 48.7172 63.8686 48.9643C63.8686 50.0379 63.6142 52.0924 61.9102 53.7891C60.2667 55.4257 57.7644 56.2556 54.4733 56.2556Z" fill="black"/>
<path d="M35.0143 38.4685C35.0143 38.4685 35.9592 41.2962 39.5497 41.2923C42.2612 41.2893 43.5563 38.4685 43.5563 38.4685C43.5563 38.4685 41.0439 39.8805 39.2853 39.8805C36.5791 39.8803 35.0143 38.4685 35.0143 38.4685Z" fill="black"/>
<path d="M65.0047 37.7166C65.0047 37.7166 65.9496 40.5442 69.5401 40.5403C72.2517 40.5373 73.5469 37.7166 73.5469 37.7166C73.5469 37.7166 71.0345 39.1285 69.2759 39.1285C66.5697 39.1285 65.0047 37.7166 65.0047 37.7166Z" fill="black"/>
<path d="M43.3101 9.77428C38.6218 9.83524 34.0447 11.1949 29.6736 12.8825C32.9823 15.3839 36.6855 17.4264 40.6938 18.5177C44.7021 19.609 49.0311 19.7153 52.9877 18.4512C51.4028 19.5167 50.652 21.4323 50.1397 23.2656C49.2235 26.5435 48.7765 29.9508 48.8166 33.3527C50.9355 31.5664 53.0722 29.7615 54.7575 27.5652C56.4428 25.3688 57.6629 22.719 57.6754 19.9561C62.2178 24.0843 68.3795 26.4006 74.531 26.2924C72.4336 22.2157 68.4119 19.1717 63.9029 18.2479C66.7659 18.5884 69.6488 17.4535 71.957 15.7347C74.2653 14.0157 76.0889 11.7458 77.8738 9.49325C73.0169 8.20441 67.8917 9.26189 63.3887 11.2647C62.2638 11.7651 61.1674 12.3283 60.1003 12.9409C59.1911 13.4629 57.9777 14.5461 56.8543 14.4189C55.9496 14.3165 55.2649 13.37 54.5615 12.8738C53.558 12.166 52.4265 11.6091 51.285 11.1607C48.759 10.1685 46.0196 9.73915 43.3101 9.77428Z" fill="#86CC2B"/>
<path d="M33.3388 13.199C35.2138 13.1974 37.1025 12.8569 38.9836 12.8004C40.8299 12.745 42.681 12.7926 44.5192 12.9795C48.2831 13.3625 51.9755 14.4613 55.1651 16.5269C55.878 16.9885 56.5828 15.7736 55.8276 15.3993C52.4026 13.7018 48.7069 12.8165 44.9016 12.4859C42.9346 12.3149 40.9543 12.3125 38.9838 12.4241C37.1346 12.5287 35.1143 12.5878 33.3239 13.0875C33.2619 13.1046 33.2738 13.199 33.3388 13.199Z" fill="#A9E55C"/>
<path d="M50.4733 30.0595C50.9986 28.955 51.2638 27.7022 51.6873 26.553C52.1341 25.3406 52.6395 24.1516 53.1969 22.9855C53.7266 21.8776 54.2919 20.7821 54.9297 19.7315C55.249 19.2056 55.5805 18.6841 55.9305 18.1777C56.2945 17.651 56.8354 17.2553 56.8387 16.589C56.8408 16.1807 56.4251 16.0231 56.0944 16.1642C55.5111 16.4131 55.3315 17.1322 55.0382 17.6588C54.7381 18.1972 54.4458 18.7384 54.1641 19.2865C53.5859 20.411 53.034 21.5462 52.5464 22.7129C52.0393 23.9261 51.5937 25.1654 51.2068 26.4215C50.8506 27.5776 50.408 28.8168 50.3668 30.0312C50.3651 30.0851 50.4489 30.1112 50.4733 30.0595Z" fill="#A9E55C"/>
<path d="M71.3248 24.7902C70.3474 23.7358 69.3869 22.8277 68.2279 21.9673C67.0582 21.0991 65.8583 20.2682 64.6291 19.4851C62.184 17.9276 59.6438 16.7426 56.9417 15.7048C56.1246 15.391 55.7024 16.8005 56.5749 17.0278C59.2567 17.7267 61.8095 19.111 64.1608 20.5428C65.3292 21.2542 66.4639 22.0161 67.5932 22.7867C68.7822 23.598 69.9477 24.2674 71.2383 24.9014C71.3102 24.937 71.3813 24.8511 71.3248 24.7902Z" fill="#A9E55C"/>
<path d="M74.761 10.3445C71.4208 10.4735 68.0151 11.0961 64.8077 12.0357C63.2411 12.4946 61.7031 13.0528 60.2212 13.7367C59.4634 14.0863 58.7218 14.4703 58.0024 14.8928C57.3108 15.2989 56.4652 15.7057 55.9162 16.2927C55.5226 16.7134 56.0152 17.3256 56.5214 17.073C57.2181 16.7253 57.8243 16.142 58.495 15.7309C59.17 15.3172 59.8658 14.9371 60.577 14.5883C62.0866 13.8482 63.6649 13.2564 65.2721 12.7634C68.4007 11.8036 71.6182 11.2879 74.7773 10.4654C74.844 10.4481 74.8316 10.3418 74.761 10.3445Z" fill="#A9E55C"/>
<path d="M53.912 3.37187C54.1207 2.37397 54.4297 1.31286 55.237 0.685328C55.7363 0.297248 56.3725 0.123859 57.0014 0.047744C58.7167 -0.160033 60.5059 0.316927 61.8868 1.35026C61.9873 1.42547 62.0903 1.50984 62.1315 1.62799C62.2139 1.86429 62.0191 2.09848 61.8456 2.27954C59.3884 4.84372 58.2681 8.61268 58.9285 12.0938C59.1427 13.2225 59.533 14.3623 59.3309 15.4932C59.0772 16.912 57.6974 18.1312 56.2491 18.2531C54.5205 18.3986 54.2665 16.711 53.9686 15.3462C53.111 11.4171 53.0888 7.30881 53.912 3.37187Z" fill="#77BC0C"/>
<path d="M55.2046 2.12218C54.9002 2.67871 54.7762 3.31225 54.6562 3.93453C54.4926 4.78245 54.3289 5.63051 54.1653 6.47843C53.8354 8.18809 53.5132 10.0034 54.136 11.6305C54.2045 11.8093 54.3109 12.0067 54.5 12.0423C54.8151 12.1018 54.9891 11.6922 55.0262 11.3753C55.212 9.7859 55.0407 8.16646 55.2896 6.58577C55.5384 5.00522 56.336 3.36839 57.8138 2.73756C58.8877 2.27922 59.6674 1.29948 58.0969 0.700168C56.9807 0.274406 55.7389 1.14545 55.2046 2.12218Z" fill="#A9E55C"/>
</svg>
