<svg width="17" height="17" viewBox="0 0 17 17" fill="none" xmlns="http://www.w3.org/2000/svg">
<path fill-rule="evenodd" clip-rule="evenodd" d="M5.49167 10.7251L6.1 7.88344C6.18857 7.48854 6.38805 7.12715 6.675 6.84177L12.2333 1.33344C12.797 0.75925 13.5623 0.427422 14.3667 0.408437C14.9733 0.399744 15.5584 0.633748 15.9917 1.05844C16.9385 2.17716 16.8163 3.84779 15.7167 4.81677L10.1583 10.3751C9.87295 10.6621 9.51156 10.8615 9.11667 10.9501L6.275 11.5584H6.11667C5.90893 11.5664 5.71051 11.4719 5.58577 11.3056C5.46104 11.1393 5.42587 10.9223 5.49167 10.7251ZM7.55833 7.73344C7.44157 7.84659 7.36047 7.99143 7.325 8.1501L6.91667 10.0918L8.85833 9.6751C9.01701 9.63964 9.16185 9.55853 9.275 9.44177L14.8333 3.88344C15.4422 3.39596 15.5631 2.51717 15.1083 1.88344C14.9092 1.69319 14.6419 1.59108 14.3667 1.6001C13.8921 1.61916 13.4437 1.82244 13.1167 2.16677L7.55833 7.73344Z" fill="#999999"/>
<path d="M15.5917 7.10844C15.2484 7.11293 14.9712 7.39014 14.9667 7.73344V12.4751C14.9778 13.1453 14.7194 13.792 14.2493 14.2699C13.7793 14.7478 13.137 15.0169 12.4667 15.0168H4.525C3.13948 14.9896 2.02927 13.8609 2.025 12.4751V4.56677C2.04775 3.17934 3.17906 2.06658 4.56667 2.06677H9.30834C9.65352 2.06677 9.93334 1.78695 9.93334 1.44177C9.93334 1.09659 9.65352 0.81677 9.30834 0.81677H4.525C2.44709 0.816645 0.756172 2.48898 0.733337 4.56677V12.4751C0.733337 14.5692 2.43092 16.2668 4.525 16.2668H12.4333C14.5242 16.2622 16.2167 14.5659 16.2167 12.4751V7.73344C16.2122 7.39014 15.935 7.11293 15.5917 7.10844Z" fill="#999999"/>
</svg>
