<svg width="18" height="16" viewBox="0 0 18 16" fill="none" xmlns="http://www.w3.org/2000/svg">
<path d="M7.94981 15.5201C8.0931 15.6553 8.28278 15.7304 8.47981 15.7301C8.6761 15.7318 8.86434 15.6521 8.99981 15.5101C9.14276 15.3708 9.22338 15.1797 9.22338 14.9801C9.22338 14.7805 9.14276 14.5894 8.99981 14.4501L3.29975 8.75H16.52C16.9342 8.75 17.27 8.41421 17.27 8C17.27 7.58579 16.9342 7.25 16.52 7.25H3.29756L9.00981 1.52006C9.15276 1.38077 9.23338 1.18965 9.23338 0.990063C9.23338 0.790475 9.15276 0.59935 9.00981 0.460063C8.71699 0.167609 8.24263 0.167609 7.94981 0.460063L0.949809 7.46006C0.657355 7.75288 0.657355 8.22724 0.949809 8.52006L7.94981 15.5201Z" fill="black"/>
</svg>
